<svg width="28" height="28" viewBox="0 0 28 28" fill="none" xmlns="http://www.w3.org/2000/svg">
<path d="M1 10.7278C1 10.3676 1.36935 10.1256 1.6996 10.2694L10.5885 14.1395C10.7709 14.219 10.8889 14.399 10.8889 14.598V24.1723C10.8889 24.5485 10.4892 24.7899 10.1562 24.6149L1.37249 19.9979C1.26117 19.9368 1.16822 19.8485 1.10289 19.7416C1.03756 19.6348 1.00212 19.5131 1.0001 19.3888L1 19.3776V10.7278ZM22.2978 10.2565C22.6283 10.1104 23 10.3524 23 10.7138V19.3776C23 19.5039 22.9655 19.6278 22.9 19.7368C22.8346 19.8458 22.7405 19.9359 22.6275 19.9979L13.8437 24.6149C13.5108 24.7899 13.1111 24.5485 13.1111 24.1723L13.1111 14.6443C13.1111 14.4463 13.2279 14.267 13.4089 14.187L22.2978 10.2565ZM11.6399 4.09204C11.7498 4.03174 11.8738 4.00006 12 4.00006C12.1262 4.00006 12.2502 4.03174 12.3601 4.09204L20.8462 7.86131C21.2444 8.03818 21.2416 8.60429 20.8417 8.7772L12.1984 12.5142C12.0718 12.569 11.9282 12.569 11.8016 12.5142L3.15831 8.7772C2.75838 8.60429 2.75558 8.03817 3.15378 7.86131L11.6399 4.09204Z" fill="#FF8800"/>
<path d="M21 27C24.866 27 28 23.866 28 20C28 16.134 24.866 13 21 13C17.134 13 14 16.134 14 20C14 23.866 17.134 27 21 27Z" fill="#D97400"/>
<path d="M27 20C27 16.6863 24.3137 14 21 14C17.6863 14 15 16.6863 15 20C15 23.3137 17.6863 26 21 26V27L20.6396 26.9912C17.0605 26.8097 14.1903 23.9395 14.0088 20.3604L14 20C14 16.134 17.134 13 21 13L21.3604 13.0088C25.0589 13.1963 28 16.2549 28 20L27.9912 20.3604C27.8037 24.0589 24.7451 27 21 27V26C24.3137 26 27 23.3137 27 20Z" fill="white"/>
<path d="M20.4 17.3C20.4 17.1343 20.5343 17 20.7 17H21.3C21.4657 17 21.6 17.1343 21.6 17.3V19.4H23.7C23.8657 19.4 24 19.5343 24 19.7V20.3C24 20.4657 23.8657 20.6 23.7 20.6H21.6V22.7C21.6 22.8657 21.4657 23 21.3 23H20.7C20.5343 23 20.4 22.8657 20.4 22.7V20.6H18.3C18.1343 20.6 18 20.4657 18 20.3V19.7C18 19.5343 18.1343 19.4 18.3 19.4H20.4V17.3Z" fill="white"/>
</svg>
